PathFileType	4	(X/Y/Z)	Patient4_TMGait_0pt4_03_left_14.trc.trc
DataRate	CameraRate	NumFrames	NumMarkers	Units	OrigDataRate	OrigDataStartFrame	OrigNumFrames
74.074074074074	74.074074074074	4	33	mm	74.074074074074	18	       141
Frame#	Time	Sacral			L.Shoulder			Chest			R.Shoulder			Neck			R.ASIS			L.ASIS			R.Thigh.Superior			R.Thigh.Lateral			R.Thigh.Inferior			R.Patella			L.Thigh.Superior			L.Thigh.Lateral			L.Thigh.Inferior			L.Patella			L.Shank.Superior			L.Shank.Lateral			L.Shank.Inferior			R.Shank.Superior			R.Shank.Lateral			R.Shank.Inferior			R.Heel			R.Midfoot.Superior			R.Midfoot.Lateral			R.Toe			L.Heel			L.Midfoot.Lateral			L.Midfoot.Superior			L.Toe			L.Elbow			L.Wrist			R.Elbow			R.Wrist			
		X1	Y1	Z1	X2	Y2	Z2	X3	Y3	Z3	X4	Y4	Z4	X5	Y5	Z5	X6	Y6	Z6	X7	Y7	Z7	X8	Y8	Z8	X9	Y9	Z9	X10	Y10	Z10	X11	Y11	Z11	X12	Y12	Z12	X13	Y13	Z13	X14	Y14	Z14	X15	Y15	Z15	X16	Y16	Z16	X17	Y17	Z17	X18	Y18	Z18	X19	Y19	Z19	X20	Y20	Z20	X21	Y21	Z21	X22	Y22	Z22	X23	Y23	Z23	X24	Y24	Z24	X25	Y25	Z25	X26	Y26	Z26	X27	Y27	Z27	X28	Y28	Z28	X29	Y29	Z29	X30	Y30	Z30	X31	Y31	Z31	X32	Y32	Z32	X33	Y33	Z33	

18	18.259500000000	831.321545051034	1005.335325641280	535.294452322773	996.874558427224	1435.141981642449	352.047241099098	1117.361623020229	1359.713366685571	497.472415060275	1058.728770090363	1428.710485598525	683.043814242261	1001.717353828764	1493.518619089853	511.115681497061	1065.463496297837	936.382884712689	632.793548110138	1032.592734832113	962.813765206340	361.673006014404	1078.723859890805	730.217079915084	600.011769263435	987.968298965266	626.926568866910	663.804485722573	1052.983789760934	569.350463461755	580.602086284430	1041.557070185227	482.020316351083	586.010728334574	1101.210003978949	770.129320847671	377.983621042720	1045.892109075353	648.511714211112	294.778447860267	1148.806013068474	583.146381847188	350.181439071693	1174.246817301228	522.394444308391	343.408659519614	1158.932367086715	453.876012960522	329.740955721924	1096.308374153599	324.597815801297	273.962448864957	1189.192985612751	226.527222664742	320.850941183391	1003.949005295545	394.707067465899	591.171783833325	922.616023403259	297.966414234239	653.459006583311	951.067594314691	201.118085116653	585.836751152435	802.352220750592	43.346262316417	554.822536389789	974.168424055882	96.034080225094	589.341071887975	886.175838156576	37.035819730213	628.648868428046	1094.338577220016	41.884508895079	616.164656711778	1114.152276257551	44.158618653518	354.868168733301	1185.755188615021	51.863616377416	273.241697012789	1254.418470743370	131.806707536693	293.766602617417	1387.990798742524	107.559967090479	263.035867004032	885.919251791526	1099.859731324958	244.864313144163	908.005829656547	840.700512045211	207.093877133264	1135.690214634754	1088.202447827511	799.026719274922	1357.209963021947	966.976618479151	742.194010048200	
19	18.273000000000	831.555614187099	1004.830111368596	533.369005586530	996.845561399061	1434.527540173675	350.107713406940	1117.347531724677	1359.221014879479	495.564809702906	1058.591404377407	1428.141559468184	681.129350133911	1001.643411100156	1492.905783371683	509.183111039437	1065.644542612181	935.754046944529	630.805556651757	1032.983086247056	962.057734303567	359.799037282001	1077.305058164138	729.240471651851	598.405501090479	985.583417545204	626.695039983389	662.508552004590	1049.923645768567	568.396165462792	579.413118280726	1037.735059403779	481.196840375059	584.822615274659	1102.259908607373	769.773368318403	377.344183928062	1047.219720608586	647.114620419109	295.217292501271	1149.871181652933	582.210182057674	351.020545785302	1174.877001730947	520.347432279574	344.641280326609	1158.295231058266	451.158883739091	331.551073988178	1093.047052001992	323.059227512164	276.231542938035	1183.259354062270	223.224253997205	324.124125719955	999.804767028289	394.218515994256	590.273348621957	918.158245890048	297.977816440282	652.953059178752	945.941530393903	200.845317035619	585.436567648332	796.855390111189	43.264548828067	554.819495738243	968.612965679847	95.944793941519	589.288552250118	880.665410910483	36.967661456056	628.620883955431	1088.840893328006	41.861671389917	616.157704057309	1103.764233141906	43.289675410141	358.420471759436	1175.721791298477	49.227518096286	277.032597885812	1246.275088547346	127.175580249439	297.912154656291	1379.148036175630	99.524700534699	267.594940068476	885.350952907330	1099.301845306715	243.588868261881	906.249529001850	839.965977547068	206.441749044423	1135.768657049021	1087.571781092796	796.615809252746	1358.059853279454	969.032272889456	737.698570910582	
20	18.286500000000	831.981125328969	1004.240604552959	531.277148656126	996.833216834192	1433.834814207550	347.915684297419	1117.369571346289	1358.731032655355	493.431671377029	1058.440271438237	1427.561265944807	678.982959470267	1001.582879245373	1492.244289605409	507.010976184237	1066.013769217583	935.155601324237	628.871099525752	1033.631705303528	961.176735046024	357.854784834338	1076.077575676207	728.232494739722	596.943348995623	983.224107804922	626.491312701682	661.221469006956	1046.967327306565	567.425529099797	578.354362190782	1033.950815869815	480.375281328975	583.707740704583	1103.491112880520	769.155955558954	376.672468414765	1048.517051707138	645.526075777545	295.691152047221	1150.868248225264	581.035546620599	351.955054608489	1175.280950060382	517.928435584413	346.035706405161	1157.321206516776	448.063934909763	333.436656676962	1089.169866744822	321.324150061890	278.490379424572	1176.423827658286	219.517585018109	327.421345010941	995.706205199482	393.757187251328	589.433353744394	913.692600800368	298.040216120699	652.468254111535	940.830316152695	200.604804058817	585.088465025542	791.369701789876	43.203112584374	554.833904524413	963.069902255698	95.854399347898	589.256243835847	875.165226845074	36.892109167248	628.600943870625	1083.350966860875	41.827043157102	616.155093259886	1091.977538658842	42.316927508583	361.716237015384	1164.416612186338	46.415849673698	280.667422935491	1237.025191657274	122.067035162361	302.197035852823	1369.173769810272	90.658679188004	272.454304671524	884.929920722666	1098.610844181362	242.053774014609	905.287541551974	839.160922769646	205.444533656012	1135.513890545358	1086.926372000571	794.248886660481	1358.309673283986	970.594425249051	733.381337275216	
21	18.300000000000	832.586016866238	1003.598979500073	529.027811731039	996.886558464490	1433.079266756061	345.464989428520	1117.455525421606	1358.255714376590	491.081082516205	1058.286523017922	1426.993680934035	676.602247858056	1001.561046873051	1491.555612981947	504.587236176024	1066.558053951029	934.591541981642	627.007941348518	1034.520202001404	960.191616003686	355.870413628982	1075.061681558663	727.194093375447	595.630678616053	980.917143523235	626.311694556999	659.925898089602	1044.149174645040	566.446109251473	577.403730366244	1030.242745349530	479.560557826150	582.635403976290	1104.808501393459	768.238862069169	375.976058031840	1049.654326388449	643.797942355044	296.144017439427	1151.679537121685	579.652656806375	352.933369058014	1175.349130989320	515.249301212003	347.533075229913	1156.015789691366	444.752723004090	335.289114661670	1084.911527922050	319.460005876310	280.622732693384	1169.104094094296	215.645015237157	330.588963528362	991.684920996666	393.323086282960	588.626039481320	909.251658251139	298.161822963110	651.991651637437	935.758396027962	200.402977754471	584.779900402454	785.899487623387	43.178201601271	554.869346945115	957.547934988430	95.769638267853	589.246202488220	869.680236414408	36.816832135037	628.588667414467	1077.871685330923	41.775624440450	616.159122203127	1079.553927324060	41.328184536624	364.612289941747	1152.575940678113	43.648229951083	283.986672500519	1227.240898569346	116.843909521607	306.442721297559	1358.693065784504	81.594673612363	277.414380083754	884.680755068165	1097.811760300240	240.250047423932	905.102640618022	838.299659723077	204.092657628832	1134.933925732806	1086.279461656014	791.905715837614	1357.978772026949	971.618850008739	729.285757232210	
